<?xml version="1.0" standalone="no"?>
<!DOCTYPE svg PUBLIC "-//W3C//DTD SVG 20010904//EN"
 "http://www.w3.org/TR/2001/REC-SVG-20010904/DTD/svg10.dtd">
<svg version="1.0" xmlns="http://www.w3.org/2000/svg"
 width="690.000000pt" height="232.000000pt" viewBox="0 0 690.000000 232.000000"
 preserveAspectRatio="xMidYMid meet">
<metadata>
Created by potrace 1.15, written by Peter Selinger 2001-2017
</metadata>
<g transform="translate(0.000000,232.000000) scale(0.100000,-0.100000)"
fill="#000000" stroke="none">
<path d="M1240 2260 c0 -5 17 -10 38 -11 l37 -1 -50 -15 c-27 -8 -59 -18 -70
-23 -11 -4 -41 -13 -67 -19 -26 -6 -61 -19 -77 -29 -79 -47 -170 -99 -205
-117 -46 -24 -192 -152 -188 -166 1 -5 -4 -9 -12 -9 -11 0 -55 -30 -103 -70
-7 -5 -15 -10 -18 -10 -12 0 -85 -84 -85 -97 0 -7 -4 -13 -10 -13 -5 0 -10 -6
-10 -14 0 -7 -6 -19 -14 -25 -19 -16 -27 -61 -11 -61 20 0 15 -49 -6 -61 -40
-21 -153 -26 -175 -8 -16 13 -48 4 -39 -11 3 -5 2 -10 -3 -10 -16 0 -23 -30
-12 -51 6 -10 16 -19 21 -19 6 0 19 -11 30 -24 13 -16 32 -25 65 -29 26 -2 50
-11 55 -18 7 -11 16 -10 50 8 44 24 70 20 83 -13 3 -9 12 -14 20 -11 20 8 28
-34 11 -53 -17 -19 -20 -50 -4 -50 6 0 19 5 31 11 16 9 19 8 16 -6 -1 -9 -6
-16 -11 -15 -11 1 -140 -131 -133 -137 3 -3 27 13 54 36 28 22 52 41 54 41 2
0 -22 -27 -54 -61 -51 -53 -69 -79 -53 -79 2 0 24 21 47 46 23 25 55 55 71 66
l30 21 -19 -29 c-10 -16 -40 -54 -67 -84 -26 -30 -62 -84 -79 -118 l-32 -64
-39 6 c-21 4 -52 13 -68 21 -15 8 -37 15 -47 15 -11 0 -34 6 -51 13 -25 11
-29 16 -18 27 10 10 9 11 -2 5 -8 -5 -30 -8 -49 -7 -25 1 -33 -2 -29 -12 3 -7
1 -18 -5 -24 -8 -8 -6 -16 6 -27 9 -9 16 -23 16 -31 0 -8 5 -14 10 -14 6 0 10
-5 10 -11 0 -6 9 -22 20 -36 20 -26 27 -48 11 -39 -4 3 -19 -3 -31 -14 -22
-19 -23 -21 -5 -40 11 -12 19 -37 19 -59 1 -35 -2 -40 -26 -45 -16 -3 -28 -9
-28 -14 0 -4 23 -35 51 -67 27 -33 62 -79 77 -102 15 -23 33 -42 40 -43 6 0
12 -7 12 -15 0 -18 67 -37 90 -25 9 5 22 16 30 24 7 10 29 16 54 16 76 1 476
-34 476 -41 0 -4 27 -5 61 -3 34 2 66 1 71 -2 6 -4 29 -8 52 -9 22 -2 118 -10
211 -19 354 -34 994 -54 1130 -37 l60 8 -45 3 c-25 1 -56 4 -70 6 -23 4 -126
12 -176 13 -12 1 -24 7 -27 14 -3 8 8 12 34 12 22 1 39 -4 39 -10 0 -5 5 -3
11 5 8 11 12 12 16 3 2 -7 11 -13 19 -13 9 0 13 4 9 9 -3 5 9 11 27 14 18 2
-185 4 -452 5 -434 2 -595 8 -682 28 -17 4 -28 2 -28 -4 0 -6 -13 -10 -30 -10
-16 1 -28 4 -26 7 2 3 -25 6 -60 7 -60 1 -174 30 -174 45 0 7 164 22 245 22
28 1 88 -2 135 -6 59 -6 80 -5 70 2 -12 8 -8 11 17 11 40 0 63 9 63 25 0 8
-31 14 -102 19 -57 4 -106 12 -109 18 -4 6 -14 8 -23 5 -8 -3 -18 -2 -21 3 -4
6 -13 10 -21 10 -8 0 -13 -4 -9 -9 3 -5 1 -12 -5 -16 -6 -4 -8 -11 -5 -16 4
-5 -10 -9 -29 -9 -27 0 -34 3 -30 15 7 18 21 20 26 3 2 -6 10 -8 16 -4 22 13
13 22 -25 24 -20 2 -41 6 -47 10 -6 3 -22 8 -36 10 -14 2 -56 11 -95 21 l-70
19 160 -3 c153 -3 253 -17 266 -38 4 -5 31 -11 60 -13 30 -1 83 -7 119 -13 36
-6 86 -14 112 -18 26 -3 45 -9 43 -13 -2 -4 15 -7 38 -7 83 -1 87 -2 80 -20
-5 -13 -3 -15 13 -8 10 5 35 9 54 8 63 -1 181 -12 201 -18 22 -7 62 3 55 14
-3 4 1 8 9 8 8 0 15 -4 15 -9 0 -4 11 -8 25 -8 26 0 34 -15 13 -23 -7 -3 -3
-6 10 -6 13 -1 21 3 17 8 -7 13 16 26 24 14 9 -14 74 -26 65 -12 -5 8 5 10 30
7 20 -2 36 0 36 6 0 5 10 1 22 -10 12 -10 18 -13 14 -6 -5 8 1 12 18 12 14 0
26 5 26 12 0 9 3 9 11 1 8 -8 20 -9 37 -2 24 9 149 5 160 -5 3 -3 11 -1 19 5
10 9 13 8 13 -5 0 -9 5 -16 11 -16 6 0 8 -7 5 -16 -4 -11 1 -18 14 -21 33 -9
22 -30 -12 -24 -5 0 -8 -3 -8 -9 0 -5 7 -10 15 -10 8 0 15 -8 15 -17 1 -17 1
-17 11 -1 5 10 15 18 20 18 6 0 7 -5 3 -12 -10 -16 -21 -147 -12 -142 4 3 8 0
8 -5 0 -6 -5 -11 -11 -11 -7 0 -9 -13 -5 -37 11 -60 16 -73 31 -73 7 0 15 -7
19 -15 6 -17 36 -9 36 10 0 8 10 15 23 17 21 3 22 6 22 130 0 87 4 131 12 139
10 10 9 17 -4 31 -11 12 -12 18 -4 18 8 0 10 7 6 19 -4 14 0 21 17 27 22 7 22
7 3 15 -14 5 -6 8 28 8 26 1 47 5 47 9 0 4 -12 8 -27 7 -54 -2 -78 10 -80 38
-1 21 3 27 18 27 11 0 28 4 37 9 10 5 42 12 72 15 77 8 191 23 285 35 44 6
131 13 193 16 114 5 159 11 178 26 6 5 28 6 50 3 57 -8 243 -10 238 -3 -6 10
33 18 57 12 16 -4 18 -8 7 -14 -12 -8 90 -3 119 6 6 2 14 -1 17 -8 2 -7 5 -5
5 4 1 18 48 32 66 21 5 -4 -6 -10 -25 -14 -24 -4 -9 -6 50 -7 47 -1 159 -4
250 -7 91 -2 253 -1 361 3 207 8 233 7 223 -8 -3 -6 0 -17 8 -26 9 -12 9 -15
1 -9 -7 4 -13 3 -13 -2 0 -5 -14 -8 -30 -6 -19 2 -30 -1 -30 -9 0 -8 -3 -8 -9
2 -9 14 -74 17 -151 6 -19 -3 -60 -5 -90 -4 -69 1 -109 0 -135 -5 -11 -3 -32
-5 -47 -5 -18 -1 -28 -6 -28 -17 0 -12 -8 -14 -35 -10 -30 5 -35 3 -35 -14 0
-12 -7 -20 -17 -21 -60 -3 -94 -9 -111 -18 -11 -6 -23 -7 -27 -3 -4 4 -6 1 -4
-6 4 -11 107 -14 582 -13 318 0 584 4 590 8 7 5 37 13 67 18 52 10 55 11 56
42 2 39 -10 50 -56 56 -22 3 -18 4 12 2 38 -2 45 1 40 13 -4 12 -1 14 12 9 16
-6 18 -3 14 23 -3 17 -1 33 4 36 5 3 6 10 3 15 -4 5 2 8 12 6 10 -1 19 2 20 7
1 5 7 13 15 18 10 7 10 11 -4 22 -26 20 -22 44 12 61 l29 15 -22 35 c-14 21
-30 34 -44 35 -12 0 -24 4 -27 9 -6 9 -77 25 -92 21 -4 -1 -10 3 -13 8 -4 6
-39 8 -93 3 -105 -8 -119 -4 -81 20 15 10 22 19 16 19 -7 0 -13 4 -13 9 0 5
21 11 48 13 26 3 56 8 66 13 13 6 17 5 12 -3 -10 -17 6 -21 51 -12 23 4 40 4
37 -1 -5 -8 89 -25 112 -21 7 1 14 -4 17 -12 8 -20 136 -19 144 1 3 8 1 19 -6
26 -6 6 -11 22 -11 35 0 14 -14 38 -32 56 -26 26 -47 36 -100 46 -38 7 -68 16
-68 21 0 5 -12 9 -27 9 -16 0 -50 6 -78 14 l-50 13 50 7 c28 4 74 11 103 16
28 5 59 7 67 4 8 -4 15 -1 15 4 0 7 26 11 68 10 66 -1 136 7 153 18 5 3 9 1 9
-4 0 -6 11 -9 25 -8 14 0 25 5 25 9 0 5 14 6 31 2 20 -5 29 -4 25 3 -3 5 1 13
10 16 8 3 12 2 9 -4 -3 -6 -2 -10 4 -10 5 0 11 6 13 13 3 7 23 12 53 12 29 0
50 5 53 13 2 7 15 12 28 12 29 0 211 34 304 57 36 8 126 39 200 68 181 71 176
70 183 45 7 -29 16 -26 70 26 46 45 47 48 47 105 0 33 4 59 10 59 6 0 10 42
10 105 l0 104 -31 17 c-30 15 -34 15 -71 -6 -22 -12 -57 -39 -79 -60 -48 -46
-126 -88 -247 -135 -103 -40 -109 -41 -92 -20 7 8 19 15 26 15 8 0 14 3 14 8
0 4 12 8 26 9 34 1 52 19 36 35 -9 9 -12 9 -12 -1 0 -7 -4 -10 -8 -7 -5 3 -30
-6 -55 -19 -26 -13 -56 -21 -67 -18 -12 3 -22 -1 -26 -11 -3 -9 -16 -16 -28
-16 -12 0 -27 -4 -34 -10 -9 -7 -9 -7 -2 2 29 35 -4 43 -42 11 -9 -8 -21 -12
-27 -9 -5 4 -13 1 -17 -5 -4 -6 -19 -9 -38 -5 -24 5 -28 3 -16 -5 13 -10 13
-10 0 -6 -8 3 -24 9 -34 13 -16 6 -18 4 -13 -9 7 -19 -8 -23 -19 -6 -3 6 -17
8 -29 5 -13 -3 -25 -3 -28 2 -2 4 -2 1 -1 -5 2 -9 -10 -13 -37 -13 -22 0 -49
-5 -60 -10 -12 -7 -19 -7 -19 -1 0 6 -19 10 -42 9 -87 -3 -228 20 -228 37 0 2
21 3 48 0 l47 -5 -41 14 c-23 8 -86 17 -140 21 -132 10 -164 24 -46 21 50 -1
92 1 92 5 0 7 -66 18 -122 20 -16 1 -28 7 -28 14 0 10 -15 12 -60 8 -41 -4
-60 -2 -60 6 0 6 -11 11 -24 11 -14 0 -27 4 -31 9 -5 10 -39 16 -145 26 -30 3
-71 10 -90 14 -35 9 -34 9 14 10 27 1 46 4 42 8 -3 4 -27 6 -51 4 -26 -1 -45
2 -45 9 0 5 -12 10 -26 10 -14 0 -34 5 -44 10 -15 8 -21 6 -28 -7 -8 -14 -14
-15 -41 -3 -46 19 -40 40 12 40 50 0 82 15 54 26 -9 3 -33 3 -52 0 -29 -6 -34
-4 -29 8 4 11 18 15 43 14 42 -1 81 9 81 23 0 10 -28 7 -49 -5 -8 -5 -16 -4
-21 4 -8 12 -24 11 -109 -6 -23 -5 -29 -9 -20 -15 11 -7 11 -9 -2 -9 -8 0 -24
7 -35 15 -17 13 -17 14 -1 15 9 0 20 0 23 -1 4 0 10 4 13 9 4 6 20 13 36 16
17 2 30 5 30 6 0 1 36 3 79 5 60 1 82 6 91 18 7 10 20 17 29 17 9 0 16 5 16
11 0 6 -8 8 -18 5 -20 -6 -119 -23 -177 -31 -22 -3 -55 -8 -72 -11 -18 -3 -33
-1 -33 3 0 8 132 39 213 50 20 3 37 9 37 14 0 12 -47 11 -89 -1 -19 -5 -68
-12 -110 -15 -133 -10 -273 -25 -282 -31 -15 -9 -31 6 -20 19 7 9 -4 12 -39
12 -27 0 -51 -3 -54 -6 -4 -3 -18 -4 -32 -1 -22 4 -25 9 -22 33 3 16 0 31 -6
33 -6 2 -3 5 7 5 10 1 17 -5 16 -11 -1 -7 0 -22 1 -33 2 -14 4 -11 9 10 l7 30
124 -2 c149 -3 153 13 5 23 -55 4 -105 7 -112 7 -6 0 -9 7 -6 15 4 8 15 12 27
10 20 -4 46 12 46 27 0 3 -25 2 -55 -1 -54 -7 -55 -6 -53 17 2 14 -2 23 -8 22
-62 -11 -145 -26 -172 -30 -18 -3 -32 -11 -32 -19 0 -7 6 -11 13 -9 6 3 26 7
42 9 17 2 35 5 40 6 6 1 17 1 25 0 35 -5 -54 -20 -183 -32 -120 -10 -141 -10
-151 2 -7 9 -23 14 -41 11 -26 -3 -27 -4 -10 -11 12 -5 -18 -8 -70 -7 -49 1
-215 0 -368 -1 -154 -1 -282 0 -286 2 -4 3 -51 6 -104 7 -82 1 -97 4 -98 18 0
10 -2 11 -6 4 -3 -9 -26 -13 -66 -13 -75 0 -367 25 -532 45 -66 8 -145 17
-175 19 -177 17 -465 48 -525 56 -95 13 -375 13 -375 0z m363 -1458 c15 0 30
4 33 9 6 10 43 -23 37 -33 -2 -5 10 -8 26 -8 17 0 31 4 31 9 0 12 40 21 103
23 26 1 47 6 47 10 0 4 7 8 16 8 14 0 14 -3 4 -15 -11 -13 -1 -15 83 -15 88 0
123 -9 97 -25 -5 -3 -10 -2 -10 3 0 5 -13 7 -30 4 -17 -2 -27 -9 -24 -14 4 -7
-9 -8 -37 -4 -24 3 -51 6 -59 8 -8 1 -28 -2 -45 -7 l-30 -9 30 -7 c17 -4 90
-7 163 -8 88 -1 132 -5 132 -12 0 -15 105 -5 125 11 8 7 22 10 30 6 9 -3 13
-2 10 4 -3 6 -1 10 4 10 6 0 11 7 11 15 0 15 28 22 117 29 42 4 52 1 56 -13 3
-14 -2 -18 -25 -18 -16 0 -34 -6 -40 -14 -6 -10 -7 -7 -2 11 6 23 6 23 -11 6
-11 -10 -26 -15 -38 -12 -17 4 -47 -13 -47 -28 0 -3 35 -6 78 -6 42 0 84 -5
92 -10 17 -11 9 -13 -32 -10 -16 1 -28 -4 -28 -11 0 -8 -15 -10 -52 -6 -35 4
-46 2 -33 -3 13 -6 -14 -9 -78 -7 -53 1 -97 -1 -97 -5 0 -5 -9 -8 -19 -8 -11
0 -23 -4 -26 -10 -10 -16 46 -24 79 -12 23 9 32 9 38 -1 6 -9 8 -9 8 1 0 6 5
12 11 12 5 0 7 -5 3 -11 -7 -12 18 -10 61 6 20 7 20 6 1 -9 -16 -13 -48 -16
-150 -18 -178 -3 -191 -3 -204 -12 -16 -10 -304 12 -316 24 -7 7 -1 10 16 10
15 0 30 5 34 11 6 10 -65 8 -153 -3 -22 -2 -14 -15 12 -20 14 -3 25 -1 25 3 0
5 10 9 23 9 16 0 18 -3 9 -9 -8 -4 -13 -12 -13 -17 1 -12 -77 -15 -84 -3 -3 5
-41 6 -83 3 -53 -3 -72 -2 -62 5 12 8 12 11 -4 17 -14 5 -15 9 -4 15 10 7 9 9
-4 9 -9 0 -23 3 -31 6 -11 4 -15 0 -13 -13 2 -10 9 -18 16 -18 7 0 15 -5 17
-12 3 -8 -6 -9 -34 -2 -21 5 -54 9 -73 10 -33 1 -33 2 15 14 l50 12 -49 8
c-31 5 -68 3 -100 -4 -34 -8 -52 -8 -54 -1 -2 5 -12 10 -23 10 -10 0 -19 6
-20 13 0 6 -3 7 -5 2 -5 -12 -82 -7 -90 6 -3 5 -26 9 -52 9 -26 0 -54 5 -62
10 -10 7 15 9 80 5 52 -3 134 -6 182 -6 69 -1 85 -4 81 -15 -7 -18 72 -20 83
-2 4 7 3 8 -4 4 -7 -4 -12 -2 -12 5 0 12 111 8 203 -7 52 -9 47 10 -8 28 -25
9 -45 11 -45 7 0 -5 -5 -9 -11 -9 -5 0 -7 5 -3 11 5 9 -1 10 -20 5 -16 -4 -26
-2 -26 4 0 10 93 8 229 -5 58 -6 65 -15 12 -15 -35 0 -42 -3 -37 -16 3 -9 6
-20 6 -26 0 -6 10 -4 23 4 18 13 72 25 125 30 6 1 12 6 12 11 0 5 -15 7 -34 5
-19 -2 -32 0 -30 4 3 4 18 8 35 8 16 0 29 4 29 9 0 4 -64 9 -142 10 -77 1
-149 6 -160 12 -10 5 -24 9 -31 8 -33 -4 -39 2 -14 16 15 8 40 12 55 9 15 -3
38 -1 52 4 14 5 30 6 35 2 6 -4 22 -8 38 -8z m204 -256 c12 -4 30 -1 42 5 15
10 37 10 90 3 47 -6 75 -6 81 0 7 7 10 7 10 0 0 -17 59 -76 70 -69 5 3 10 0
10 -7 0 -9 3 -9 10 2 9 13 10 13 10 0 0 -13 1 -13 10 0 6 9 10 10 10 3 0 -6
10 -14 23 -16 12 -3 -16 -5 -63 -4 -47 0 -91 -3 -98 -7 -7 -4 -19 0 -29 9 -11
11 -27 15 -47 12 -17 -2 -43 -1 -57 3 -17 5 -31 4 -38 -3 -8 -8 -11 -8 -11 1
0 7 -9 12 -19 12 -11 0 -22 4 -25 9 -3 5 -15 7 -26 4 -11 -3 -20 -1 -20 5 0
11 -74 9 -102 -3 -13 -5 -18 -3 -18 9 0 9 -5 16 -12 16 -18 0 3 17 26 22 31 5
150 1 173 -6z"/>
</g>
</svg>
