<?xml version="1.0" standalone="no"?>
<!DOCTYPE svg PUBLIC "-//W3C//DTD SVG 20010904//EN"
 "http://www.w3.org/TR/2001/REC-SVG-20010904/DTD/svg10.dtd">
<svg version="1.0" xmlns="http://www.w3.org/2000/svg"
 width="750.000000pt" height="500.000000pt" viewBox="0 0 750.000000 500.000000"
 preserveAspectRatio="xMidYMid meet">
<metadata>
Created by potrace 1.15, written by Peter Selinger 2001-2017
</metadata>
<g transform="translate(0.000000,500.000000) scale(0.100000,-0.100000)"
fill="#000000" stroke="none">
<path d="M3318 4828 l-55 -63 -104 -25 c-57 -14 -111 -25 -119 -25 -10 0 -14
-8 -12 -26 2 -14 -8 -41 -24 -64 -15 -22 -27 -51 -29 -65 -5 -62 -18 -103 -36
-107 -10 -3 -20 -17 -22 -32 -17 -98 -14 -242 6 -312 16 -54 50 -109 67 -109
5 0 11 30 14 68 11 123 24 170 106 364 44 106 82 204 84 218 4 30 42 95 56 95
6 0 35 27 65 60 l56 60 -34 -55 c-58 -93 -183 -350 -220 -450 -38 -101 -55
-164 -39 -142 5 8 9 -20 10 -77 1 -67 -2 -90 -11 -88 -6 1 -15 7 -19 12 -4 6
-8 -2 -8 -17 0 -17 -5 -28 -14 -28 -7 0 -16 -10 -19 -22 -14 -51 200 -258 302
-293 54 -18 130 -20 136 -2 3 6 20 94 39 194 29 150 63 263 80 263 1 0 -3 -24
-11 -54 -10 -39 -11 -73 -5 -125 5 -43 4 -114 -2 -177 -7 -75 -7 -114 1 -135
13 -34 -1 -39 -19 -6 -7 14 -11 54 -9 107 3 102 -6 102 -18 -1 l-8 -74 -2 65
c-1 40 -5 60 -10 52 -12 -20 -1 -153 15 -179 21 -33 16 -42 -6 -14 -11 13 -20
31 -20 40 0 29 -11 31 -41 9 -22 -16 -26 -24 -17 -31 9 -6 8 -7 -4 -3 -10 3
-26 9 -35 12 -12 4 -9 -2 7 -15 l25 -21 -29 10 c-16 6 -58 31 -93 55 -35 25
-68 45 -74 45 -6 0 -42 24 -82 53 -87 64 -115 80 -67 38 47 -41 29 -39 -29 3
-59 44 -149 136 -133 136 8 0 10 5 6 13 -4 6 4 2 18 -11 25 -22 25 -22 -5 37
-16 33 -32 81 -35 107 l-5 47 -18 -22 c-11 -13 -19 -30 -19 -39 0 -12 -3 -13
-11 -5 -7 7 -10 36 -7 77 2 36 0 66 -4 66 -4 0 -8 -7 -8 -17 0 -9 -3 -14 -6
-10 -11 11 27 172 56 235 16 34 25 60 20 57 -14 -8 -13 -3 15 105 13 52 22 96
20 99 -3 2 -5 -1 -5 -7 0 -6 -73 -47 -162 -90 -265 -130 -449 -262 -646 -461
-339 -343 -566 -799 -636 -1282 -9 -59 -16 -114 -16 -123 0 -15 42 -16 459
-16 307 0 462 -3 466 -10 4 -6 9 -53 12 -105 6 -93 6 -95 31 -95 l25 0 -6 88
c-8 100 -24 167 -61 247 l-25 56 22 -7 c12 -4 28 -9 35 -11 19 -8 14 9 -14 50
-14 21 -24 41 -21 43 3 3 28 -7 57 -21 29 -14 54 -24 56 -22 3 2 -18 31 -46
63 -27 33 -50 62 -50 67 0 4 23 7 51 7 41 0 50 3 45 15 -4 11 2 15 27 15 43 0
175 -32 263 -64 39 -14 74 -26 78 -26 3 0 -8 23 -25 51 -17 27 -29 52 -27 54
7 8 142 -66 197 -107 30 -23 78 -63 108 -89 29 -27 55 -49 58 -49 13 0 -77
181 -99 199 -28 23 -17 32 16 15 49 -25 154 -130 210 -209 l49 -69 -7 -82 c-5
-65 -3 -92 10 -124 21 -54 20 -67 -4 -45 -19 17 -19 17 -7 -14 l11 -31 82 0
c77 0 82 1 77 20 -3 10 -11 25 -19 31 -32 27 -10 204 38 307 18 38 23 42 33
28 7 -8 14 -13 17 -11 3 3 13 -14 22 -39 9 -24 25 -46 34 -48 24 -6 77 9 92
27 10 12 15 12 38 -5 26 -18 48 -24 82 -21 8 0 21 16 29 34 13 30 44 67 55 67
11 0 45 -78 60 -137 23 -86 21 -171 -4 -208 -11 -16 -20 -33 -20 -37 0 -5 135
-8 300 -8 l299 0 7 62 c5 47 9 58 16 43 8 -20 4 80 -10 219 -7 64 -8 67 -23
50 -9 -11 -20 -29 -23 -41 -4 -13 -11 -23 -16 -23 -19 0 -42 63 -38 106 3 48
-9 53 -30 13 -8 -16 -10 -51 -7 -109 5 -85 5 -85 -10 -45 -25 65 -35 65 -35
-1 0 -82 -15 -128 -52 -159 -17 -14 -32 -24 -34 -22 -2 2 1 18 7 35 9 25 8 38
-5 63 -32 64 -14 127 57 207 15 16 17 22 6 22 -27 0 -78 -39 -118 -90 -40 -51
-40 -51 -47 -24 -11 45 14 130 49 167 18 17 41 38 52 45 44 28 -50 0 -98 -29
-63 -38 -68 -37 -27 6 24 25 48 38 87 46 42 10 60 20 77 43 42 56 42 58 -1 50
-64 -12 -135 -54 -195 -117 -50 -53 -58 -58 -58 -37 0 13 -2 21 -5 18 -4 -3 4
-65 15 -138 12 -72 20 -134 17 -136 -3 -3 -14 7 -25 23 -15 22 -20 50 -24 128
-5 105 -40 232 -73 264 -15 15 -15 14 -6 -11 14 -36 6 -36 -13 0 -19 37 -43
37 -50 -1 -7 -34 -43 -97 -56 -97 -5 0 -2 16 6 35 7 19 14 63 14 99 0 61 1 64
23 59 12 -3 30 -13 39 -21 16 -13 18 -13 24 2 11 29 21 17 55 -62 l33 -79 44
33 c23 19 49 37 56 41 16 10 40 53 28 53 -4 0 -13 -5 -20 -12 -21 -21 -24 0
-7 51 16 48 18 51 43 43 15 -4 45 -7 67 -7 48 0 141 44 137 64 -5 21 18 30 49
19 59 -20 58 -34 -12 -104 -55 -57 -60 -64 -36 -59 31 8 32 5 12 -50 -8 -22
-14 -60 -14 -85 l-1 -45 33 39 c24 28 36 36 42 27 5 -9 15 0 31 29 27 47 29
54 12 44 -8 -5 -9 0 -5 15 5 22 5 22 -14 5 -10 -9 -19 -13 -19 -8 0 14 31 57
49 69 13 8 9 11 -19 15 l-35 5 43 29 42 29 -81 59 c-44 33 -78 62 -76 65 3 2
24 -9 48 -26 26 -20 54 -31 75 -31 56 0 47 16 -26 46 -39 16 -70 32 -70 37 0
12 16 8 85 -23 89 -40 106 -39 139 8 14 21 26 45 26 53 0 33 30 57 80 64 41 6
49 10 40 20 -14 17 15 35 55 35 21 0 26 4 21 16 -10 25 53 12 101 -20 21 -14
47 -26 59 -26 13 0 73 18 134 40 61 22 118 40 125 40 8 0 15 -12 17 -27 2 -20
10 -29 32 -34 36 -10 46 -24 46 -69 0 -52 -51 -133 -107 -171 -96 -65 -133
-99 -133 -125 0 -29 25 -42 51 -26 11 7 20 8 24 2 3 -6 15 -10 26 -10 28 0 23
-25 -12 -54 -25 -22 -41 -26 -91 -26 -73 0 -111 -17 -168 -75 -46 -47 -54 -77
-36 -138 9 -28 8 -29 -30 -26 -34 3 -39 1 -36 -16 2 -11 10 -32 18 -47 8 -16
10 -28 5 -28 -14 0 -41 54 -41 81 0 26 60 140 97 184 14 16 44 42 67 57 22 16
36 28 30 28 -40 0 -180 -143 -218 -224 -48 -102 -30 -217 44 -280 40 -33 59
-38 145 -34 l70 3 -80 52 -80 53 543 0 c493 0 542 1 542 16 0 41 -34 239 -56
333 -159 651 -593 1204 -1184 1505 -58 30 -130 64 -160 76 -30 13 -61 30 -68
39 -16 19 -13 3 24 -124 13 -44 19 -81 14 -83 -4 -2 2 -27 15 -55 28 -64 49
-163 39 -185 -4 -9 -6 -47 -5 -83 3 -68 -13 -102 -25 -54 -9 37 -22 31 -35
-17 -6 -24 -22 -65 -36 -93 l-26 -50 23 20 c13 11 20 14 16 8 -4 -7 -3 -13 3
-13 5 0 12 6 14 13 3 7 6 8 6 1 2 -29 -178 -182 -199 -169 -5 3 -34 -12 -64
-35 -30 -22 -59 -40 -65 -40 -5 0 -42 -23 -82 -50 -40 -27 -79 -50 -88 -50
-11 0 -10 4 5 16 20 16 21 17 -33 -2 -13 -4 -14 -3 -5 3 9 7 4 15 -18 31 -20
15 -30 18 -30 10 0 -17 -40 -82 -46 -75 -3 3 1 18 10 34 8 16 18 58 22 94 4
35 9 60 10 54 2 -5 8 -29 14 -52 11 -42 11 -43 54 -43 24 0 63 7 87 15 62 22
170 108 244 194 69 80 69 80 21 135 l-26 29 0 -58 c0 -32 -3 -55 -7 -51 -4 4
-7 56 -8 116 -1 62 3 104 7 97 5 -7 6 5 2 27 -5 28 -4 37 5 32 6 -4 11 -2 11
4 0 19 -113 315 -122 318 -4 2 -35 56 -68 121 -33 65 -76 135 -95 157 l-35 39
22 -39 22 -39 -47 7 c-195 29 -416 33 -602 11 -66 -8 -126 -15 -133 -15 -8 0
-4 14 13 37 57 84 18 85 -57 1z m467 -156 l30 -87 87 -5 c47 -3 89 -7 92 -10
2 -3 -27 -28 -65 -55 -38 -27 -69 -56 -69 -65 0 -8 9 -44 20 -78 26 -82 26
-96 1 -83 -10 6 -40 27 -66 47 -26 19 -54 36 -63 36 -10 1 -48 -20 -86 -46
-38 -26 -71 -45 -73 -42 -3 3 7 42 22 87 l28 83 -25 20 c-14 12 -47 39 -74 61
l-49 40 95 5 95 5 29 92 c16 51 32 90 35 87 3 -3 20 -45 36 -92z m-1109 -295
c9 -27 16 -32 47 -35 20 -2 37 -6 37 -9 0 -3 -12 -14 -26 -26 -26 -20 -28 -39
-8 -92 7 -17 3 -16 -29 8 l-37 28 -35 -21 c-30 -19 -35 -19 -35 -5 0 9 5 25
10 35 8 15 4 25 -22 49 l-33 31 41 0 c39 0 41 2 53 41 14 45 20 44 37 -4z
m2180 0 c10 -29 15 -32 55 -35 l44 -3 -34 -28 c-31 -26 -32 -29 -23 -64 12
-42 6 -46 -32 -16 l-27 21 -36 -28 -36 -27 6 29 c3 16 8 36 12 45 4 12 -5 23
-32 40 l-38 24 47 3 c46 3 48 5 59 43 13 43 19 43 35 -4z m-898 -297 c6 -19
18 -80 27 -135 9 -55 18 -111 21 -125 4 -20 3 -22 -5 -10 -8 11 -11 0 -12 -45
l-2 -60 -8 74 c-12 105 -21 102 -18 -8 2 -84 0 -95 -20 -114 l-22 -22 12 27
c9 20 9 54 2 135 -6 60 -6 141 -2 183 9 83 3 135 -17 165 -8 11 -14 24 -14 30
0 18 47 -59 58 -95z m-1695 -60 c12 -4 31 -11 42 -15 17 -6 14 -10 -22 -25
-40 -18 -42 -20 -36 -54 7 -43 -7 -47 -36 -10 -19 24 -23 25 -52 15 -49 -17
-53 -14 -30 24 l21 36 -22 29 c-26 36 -21 44 21 29 18 -6 33 -10 35 -8 1 2 13
20 27 39 l24 35 3 -43 c2 -33 8 -45 25 -52z m3078 -1 c8 -5 22 -9 31 -9 32 0
29 -19 -7 -34 -32 -14 -35 -18 -35 -58 l-1 -43 -27 33 -27 33 -43 -15 -42 -15
22 39 23 39 -23 30 c-12 17 -22 32 -22 35 0 2 17 0 37 -6 35 -9 39 -8 60 18
13 16 23 34 24 39 1 6 5 -10 9 -33 3 -24 13 -48 21 -53z m-2093 -405 c75 -38
104 -66 95 -90 -3 -8 5 -16 22 -20 25 -6 27 -9 21 -48 -4 -22 -11 -45 -16 -50
-5 -5 -6 -14 -4 -20 9 -22 -35 -51 -77 -50 -51 2 -194 86 -217 129 -10 16 -25
36 -35 43 -9 7 -15 18 -12 23 4 5 -3 21 -14 35 -12 15 -21 39 -21 55 0 34 17
39 115 34 56 -3 84 -12 143 -41z m1221 40 c26 -5 31 -11 31 -34 0 -15 -9 -39
-21 -54 -11 -14 -18 -30 -14 -35 3 -5 -3 -16 -13 -23 -18 -13 -37 -46 -34 -60
3 -14 -193 -112 -225 -112 -34 0 -77 30 -69 50 2 6 1 15 -4 20 -5 5 -12 28
-16 50 -6 39 -4 42 21 48 19 5 25 12 21 22 -8 20 30 57 93 88 79 41 158 54
230 40z m-2593 -77 c9 -28 16 -33 52 -37 l42 -5 -30 -20 c-33 -22 -34 -26 -21
-73 11 -38 9 -39 -30 -11 -31 22 -38 21 -76 -7 -22 -15 -23 -15 -22 2 0 11 4
28 8 39 7 16 1 26 -23 47 l-31 27 38 1 c36 0 40 3 54 40 18 44 23 44 39 -3z
m1907 20 c23 22 201 -2 219 -29 19 -31 9 -34 -35 -11 -44 23 -147 21 -192 -3
-31 -17 -34 -17 -59 0 -38 24 -149 25 -199 1 -45 -21 -54 -17 -27 13 14 14 33
22 55 22 19 0 36 4 40 9 3 6 37 8 75 5 42 -2 71 0 75 7 5 7 13 5 24 -5 10 -9
21 -13 24 -9z m1934 -57 l38 -1 -34 -28 c-29 -24 -32 -30 -22 -49 6 -11 11
-28 11 -37 0 -14 -5 -14 -35 5 l-35 22 -30 -22 c-17 -12 -33 -20 -35 -18 -3 2
1 21 7 42 10 31 9 39 -3 46 -7 5 -23 16 -34 24 -19 15 -18 15 23 16 25 0 44 5
47 13 2 6 10 26 16 42 l11 30 19 -42 c17 -40 21 -43 56 -43z m-3006 45 c116
-17 291 -71 303 -94 13 -23 103 -111 156 -151 25 -19 53 -44 63 -55 27 -30 92
-126 111 -163 l17 -34 -65 51 c-100 76 -257 142 -337 141 l-24 -1 24 -19 c20
-17 21 -20 5 -20 -10 0 -43 6 -73 14 -31 8 -126 22 -211 31 -85 10 -163 21
-175 25 -18 7 -17 9 10 15 44 9 64 21 120 65 34 27 60 40 81 40 33 0 86 -31
143 -83 l34 -32 -28 50 c-97 170 -188 209 -335 145 -38 -16 -72 -30 -77 -30
-4 0 -14 -4 -21 -9 -11 -7 -11 -14 3 -42 10 -19 27 -44 38 -56 l20 -23 -51 0
c-28 0 -63 5 -77 12 -23 10 -24 13 -10 28 22 24 3 38 -64 47 l-53 8 36 37 c51
52 114 87 188 103 83 18 133 18 249 0z m866 -100 c44 -41 46 -45 31 -62 -12
-13 -15 -29 -11 -59 7 -58 -18 -104 -56 -104 -25 0 -28 3 -24 21 5 20 3 21
-26 17 -29 -4 -32 -3 -27 16 3 12 6 26 6 32 0 13 76 37 90 29 11 -7 12 1 4 33
-4 12 -20 30 -36 38 -43 22 -73 1 -73 -52 0 -42 -18 -59 -23 -22 -2 13 -9 29
-15 37 -9 10 -6 18 13 35 14 11 36 36 48 54 13 17 30 32 38 32 8 0 36 -20 61
-45z m436 10 c13 -19 27 -32 30 -29 4 4 10 -2 14 -12 3 -10 10 -21 14 -24 11
-7 -17 -86 -28 -80 -4 3 -7 11 -7 18 1 6 -2 12 -7 12 -6 0 -5 8 1 19 31 60
-54 79 -97 22 -15 -19 -17 -55 -3 -46 14 8 90 -16 90 -29 0 -6 3 -20 6 -32 5
-19 2 -20 -27 -16 -29 4 -31 3 -26 -17 4 -18 1 -21 -23 -21 -39 0 -55 24 -57
92 -1 33 -7 66 -14 74 -10 12 -8 19 9 37 12 12 30 32 42 45 29 32 55 28 83
-13z m-1743 -135 c0 -37 24 -72 64 -92 l41 -21 -80 -27 c-44 -14 -90 -32 -101
-38 -33 -17 -74 -71 -81 -104 -8 -40 -18 -43 -41 -11 -71 99 -41 237 62 288
64 32 136 35 136 5z m1531 -12 c54 -34 94 -89 85 -114 -4 -11 -19 -5 -68 31
-34 25 -67 45 -74 45 -6 0 -39 -20 -73 -45 -34 -25 -63 -45 -66 -45 -10 0 -5
32 10 60 13 26 108 99 129 100 4 0 30 -14 57 -32z m-213 -180 c-1 -43 4 -73
16 -96 10 -19 15 -37 11 -40 -10 -11 -37 26 -54 75 -20 55 -36 64 -53 27 -11
-23 -13 -24 -19 -7 -5 14 -11 8 -29 -32 -35 -80 -50 -153 -50 -240 0 -70 -3
-84 -25 -110 -31 -38 -31 -33 -1 147 16 89 37 176 59 230 38 101 45 110 59 85
9 -16 12 -17 26 -4 10 8 26 17 37 20 11 2 21 5 22 6 1 0 2 -27 1 -61z m-1161
-9 c20 -8 24 -13 13 -17 -8 -3 -52 -22 -98 -43 -45 -22 -87 -39 -92 -39 -14 0
-13 -13 2 -28 24 -24 -5 -11 -48 22 l-45 35 25 16 c46 30 140 65 178 65 20 0
49 -5 65 -11z m3472 -91 c1 -16 5 -28 10 -28 5 0 22 -5 38 -11 l28 -11 -37
-19 c-34 -18 -38 -23 -38 -59 l0 -40 -28 31 c-27 30 -31 31 -62 21 -18 -7 -35
-10 -37 -8 -2 2 4 17 13 33 18 31 16 41 -13 82 -17 23 -17 24 5 17 12 -3 31
-8 42 -12 14 -4 25 4 42 30 19 29 24 32 30 18 4 -9 7 -29 7 -44z m-4186 12
c14 -37 18 -40 54 -40 l38 -1 -32 -25 c-29 -23 -30 -28 -21 -60 12 -45 8 -49
-26 -23 l-28 22 -41 -23 c-37 -21 -40 -22 -33 -4 20 52 18 69 -14 89 l-30 20
42 5 c40 5 44 8 52 43 5 20 13 37 16 37 4 0 14 -18 23 -40z"/>
<path d="M4185 4796 c70 -89 116 -175 195 -361 73 -173 93 -243 105 -374 l7
-74 20 24 c10 13 31 47 46 74 25 47 27 58 26 165 -1 114 -18 235 -33 226 -11
-7 -52 81 -45 97 2 7 -4 23 -15 36 -22 25 -36 75 -26 91 7 12 15 9 -135 46
-106 26 -118 31 -153 68 -34 36 -33 34 8 -18z"/>
<path d="M5170 3566 c-104 -39 -154 -75 -201 -146 -16 -24 -16 -24 -84 -11
-41 8 -70 10 -74 4 -3 -5 -22 -19 -41 -30 -41 -25 -149 -133 -134 -133 6 0 57
20 113 44 55 25 101 42 101 38 0 -4 -6 -16 -13 -27 -52 -75 -52 -81 -2 -35 45
41 69 55 127 74 9 3 28 22 42 44 50 79 166 169 236 183 l35 7 -35 0 c-19 0
-51 -5 -70 -12z"/>
<path d="M4879 3208 c-58 -72 -111 -128 -121 -128 -4 0 -8 17 -9 38 l0 37 -16
-50 c-17 -57 -44 -100 -82 -132 -21 -19 -23 -23 -8 -23 21 0 93 35 102 50 11
18 23 10 18 -12 -5 -21 -2 -20 21 7 15 17 34 43 43 60 15 28 17 28 27 11 40
-67 42 -65 49 35 4 52 11 109 16 127 5 17 8 32 6 32 -2 0 -22 -24 -46 -52z"/>
<path d="M4713 3225 c-24 -7 -59 -22 -78 -34 -45 -27 -53 -26 -57 2 -5 32 -25
-59 -34 -155 -8 -90 4 -103 28 -30 l16 47 2 -50 1 -50 14 42 c17 55 53 117
110 187 25 31 45 56 43 55 -2 0 -22 -6 -45 -14z"/>
<path d="M4713 2882 c-61 -108 -79 -242 -44 -317 19 -38 19 -39 20 -12 1 37
19 25 27 -18 5 -30 10 -35 35 -35 l29 0 -16 38 c-35 81 -46 120 -55 200 -8 75
-7 88 11 129 25 57 21 66 -7 15z"/>
<path d="M436 2503 c81 -71 160 -138 175 -151 20 -16 29 -33 29 -54 0 -33 -4
-37 -215 -218 -66 -56 -122 -107 -123 -111 -2 -5 175 -8 410 -7 l413 3 0 240
c0 262 0 261 61 315 46 40 100 63 197 85 43 9 77 19 77 21 0 2 -263 4 -586 4
l-585 0 147 -127z"/>
<path d="M6051 2620 c8 -5 49 -16 89 -24 97 -21 173 -59 208 -104 l27 -36 0
-245 0 -246 413 -3 c234 -1 412 2 410 7 -1 4 -78 73 -170 152 -151 129 -168
147 -168 175 0 28 18 47 176 183 l175 151 -588 0 c-362 0 -582 -4 -572 -10z"/>
<path d="M1230 2145 l0 -325 2523 2 2522 3 3 323 2 322 -2525 0 -2525 0 0
-325z m230 190 c0 -31 -3 -35 -25 -35 l-25 0 0 -195 0 -195 -25 0 -25 0 0 195
0 195 -25 0 c-22 0 -25 4 -25 35 l0 35 75 0 75 0 0 -35z m180 -65 l0 -100 25
0 25 0 0 100 0 100 30 0 30 0 -2 -227 -3 -228 -27 -3 -28 -3 0 100 0 101 -25
0 -25 0 0 -100 0 -100 -25 0 -25 0 0 230 0 230 25 0 25 0 0 -100z m380 65 c0
-33 -2 -35 -35 -35 l-35 0 0 -60 0 -60 35 0 c32 0 35 -2 35 -30 0 -28 -3 -30
-35 -30 l-35 0 0 -70 0 -70 41 0 c39 0 40 -1 37 -32 l-3 -33 -67 -3 -68 -3 0
231 0 230 65 0 65 0 0 -35z m536 1 c31 -31 34 -39 34 -92 0 -73 -26 -122 -70
-131 l-30 -5 0 -99 c0 -99 0 -99 -25 -99 l-25 0 0 230 0 230 41 0 c33 0 47 -6
75 -34z m266 4 c29 -29 29 -32 24 -103 -9 -114 -9 -119 6 -177 8 -30 18 -77
22 -103 l7 -48 -27 3 c-23 2 -29 9 -35 38 -25 127 -31 150 -40 150 -5 0 -9
-43 -9 -95 0 -95 0 -95 -25 -95 l-25 0 0 230 0 230 36 0 c26 0 43 -8 66 -30z
m308 -5 c0 -34 -1 -35 -40 -35 l-41 0 3 -57 c3 -57 3 -58 36 -61 28 -3 32 -7
32 -33 0 -27 -3 -29 -35 -29 l-35 0 0 -70 0 -70 40 0 c39 0 40 -1 40 -35 l0
-35 -65 0 -65 0 0 230 0 230 65 0 65 0 0 -35z m215 -31 c10 -36 21 -62 25 -57
4 4 15 34 24 66 14 50 20 57 41 57 l25 0 0 -230 0 -230 -25 0 -25 0 -1 138
c-1 136 -1 137 -16 89 -17 -56 -32 -57 -49 -1 -11 35 -12 26 -13 -93 l-1 -133
-25 0 -25 0 0 230 0 230 24 0 c20 0 25 -8 41 -66z m313 -161 l-3 -228 -27 -3
-28 -3 0 230 0 231 30 0 30 0 -2 -227z m272 192 c0 -33 -2 -35 -35 -35 l-35 0
0 -60 0 -60 35 0 c32 0 35 -2 35 -30 0 -28 -3 -30 -35 -30 l-35 0 0 -70 0 -70
41 0 c39 0 40 -1 37 -32 l-3 -33 -67 -3 -68 -3 0 231 0 230 65 0 65 0 0 -35z
m252 5 c29 -29 29 -32 24 -103 -9 -114 -9 -119 6 -177 8 -30 18 -77 22 -103
l7 -48 -27 3 c-24 3 -29 9 -36 43 -20 107 -30 145 -39 145 -5 0 -9 -43 -9 -95
0 -95 0 -95 -25 -95 l-25 0 0 230 0 230 36 0 c26 0 43 -8 66 -30z m498 -165
l0 -195 40 0 c39 0 40 -1 40 -35 l0 -36 -67 3 -68 3 -3 228 -2 227 30 0 30 0
0 -195z m330 160 c0 -34 -1 -35 -40 -35 l-40 0 0 -60 0 -60 35 0 c32 0 35 -2
35 -30 0 -28 -3 -30 -35 -30 l-35 0 0 -70 0 -70 40 0 c39 0 40 -1 40 -35 l0
-35 -65 0 -65 0 0 230 0 230 65 0 65 0 0 -35z m240 26 c0 -5 14 -102 30 -216
17 -114 30 -214 30 -221 0 -19 -46 -18 -54 2 -3 9 -6 31 -6 50 0 31 -3 34 -30
34 -27 0 -30 -3 -30 -34 0 -19 -3 -41 -6 -50 -8 -20 -54 -21 -54 -2 0 7 14
107 30 221 17 114 30 211 30 216 0 5 14 9 30 9 17 0 30 -4 30 -9z m328 -7 c17
-11 22 -25 22 -56 l0 -42 -28 27 c-63 60 -96 13 -96 -138 1 -107 11 -147 44
-165 19 -10 20 -8 20 55 0 51 -3 65 -15 65 -10 0 -15 10 -15 30 0 29 2 30 45
30 l45 0 0 -111 c0 -125 -6 -138 -68 -139 -44 0 -85 43 -101 104 -15 63 -14
204 3 261 26 86 86 120 144 79z m212 -166 c0 -178 6 -218 29 -204 7 5 11 68
11 197 l0 189 31 0 30 0 -3 -199 c-3 -184 -5 -202 -24 -228 -30 -40 -75 -43
-103 -7 -20 25 -21 38 -21 230 l0 204 25 0 25 0 0 -182z m378 150 c-3 -30 -6
-33 -40 -36 l-38 -3 0 -60 0 -59 35 0 c32 0 35 -2 35 -30 0 -28 -3 -30 -35
-30 l-35 0 0 -70 0 -70 40 0 c39 0 40 -1 40 -35 l0 -35 -65 0 -65 0 0 230 0
230 66 0 65 0 -3 -32z"/>
<path d="M1320 2335 c0 -9 9 -15 25 -15 l25 0 0 -195 c0 -167 2 -195 15 -195
13 0 15 28 15 195 l0 195 25 0 c16 0 25 6 25 15 0 12 -14 15 -65 15 -51 0 -65
-3 -65 -15z"/>
<path d="M1600 2140 c0 -180 2 -210 15 -210 12 0 15 17 15 95 l0 95 40 0 40 0
0 -95 c0 -57 4 -95 10 -95 6 0 10 77 10 210 0 128 -4 210 -10 210 -5 0 -11
-42 -12 -92 l-3 -93 -37 -3 -38 -3 0 95 c0 79 -3 96 -15 96 -13 0 -15 -30 -15
-210z"/>
<path d="M1910 2140 l0 -210 50 0 c37 0 50 4 50 14 0 10 -13 16 -37 18 l-38 3
-3 83 -3 82 36 0 c28 0 35 4 35 20 0 16 -7 20 -35 20 l-35 0 0 75 0 75 40 0
c29 0 40 4 40 15 0 11 -12 15 -50 15 l-50 0 0 -210z"/>
<path d="M2450 2140 c0 -180 2 -210 15 -210 12 0 15 17 15 93 l0 93 33 9 c45
14 70 64 63 129 -7 65 -36 96 -88 96 l-38 0 0 -210z"/>
<path d="M2730 2140 c0 -180 2 -210 15 -210 12 0 15 17 15 95 0 78 3 95 15 95
20 0 33 -30 48 -114 7 -39 19 -72 26 -74 17 -6 7 80 -20 161 -18 52 -18 60 -4
80 21 31 19 105 -5 145 -16 26 -26 32 -55 32 l-35 0 0 -210z"/>
<path d="M3010 2140 l0 -210 55 0 c41 0 55 4 55 14 0 10 -13 16 -37 18 l-38 3
-3 83 -3 82 36 0 c28 0 35 4 35 20 0 16 -7 20 -35 20 l-35 0 0 75 0 75 40 0
c29 0 40 4 40 15 0 12 -13 15 -55 15 l-55 0 0 -210z"/>
<path d="M3290 2140 c0 -177 2 -210 15 -210 12 0 13 23 8 153 -7 170 4 208 31
113 9 -30 16 -59 16 -66 0 -28 18 4 30 55 7 31 17 58 22 61 4 3 8 -67 8 -155
0 -101 4 -161 10 -161 6 0 10 77 10 210 0 118 -4 210 -9 210 -8 0 -51 -125
-51 -149 0 -6 -4 -11 -9 -11 -5 0 -19 36 -32 80 -13 48 -28 80 -36 80 -10 0
-13 -43 -13 -210z"/>
<path d="M3820 2140 l0 -210 50 0 c37 0 50 4 50 14 0 10 -13 16 -37 18 l-38 3
-3 83 -3 82 36 0 c28 0 35 4 35 20 0 16 -7 20 -35 20 l-35 0 0 75 0 75 40 0
c29 0 40 4 40 15 0 11 -12 15 -50 15 l-50 0 0 -210z"/>
<path d="M4090 2140 c0 -180 2 -210 15 -210 12 0 15 17 15 95 0 78 3 95 15 95
20 0 33 -30 48 -114 7 -39 19 -72 26 -74 17 -6 7 80 -20 161 -18 52 -18 60 -4
80 21 31 19 105 -5 145 -16 26 -26 32 -55 32 l-35 0 0 -210z"/>
<path d="M4890 2140 l0 -210 55 0 c42 0 55 3 55 15 0 11 -11 15 -40 15 l-40 0
0 85 0 85 35 0 c28 0 35 4 35 20 0 16 -7 20 -35 20 l-35 0 0 75 0 75 35 0 c24
0 35 5 35 15 0 11 -12 15 -50 15 l-50 0 0 -210z"/>
<path d="M5177 2153 c-30 -219 -31 -223 -18 -223 5 0 13 21 18 48 8 45 9 47
43 47 34 0 35 -2 44 -47 5 -27 13 -48 18 -48 12 0 11 5 -19 223 -22 161 -30
197 -43 197 -13 0 -21 -36 -43 -197z"/>
<path d="M5493 2345 c-38 -27 -58 -99 -58 -210 1 -80 5 -109 22 -147 26 -57
60 -77 98 -60 24 11 25 14 25 117 l0 105 -25 0 c-18 0 -25 -5 -25 -20 0 -11 7
-20 15 -20 12 0 15 -15 15 -76 l0 -75 -27 3 c-14 2 -35 15 -47 31 -19 25 -21
42 -21 145 0 136 13 175 58 180 16 2 35 -2 43 -9 11 -9 14 -8 14 9 0 21 -26
42 -52 42 -8 0 -23 -7 -35 -15z"/>
<path d="M5750 2170 c0 -195 8 -232 52 -246 16 -5 27 0 45 20 22 26 23 33 23
217 0 119 -4 189 -10 189 -6 0 -10 -63 -10 -169 0 -93 -4 -181 -10 -195 -11
-29 -44 -35 -54 -10 -3 9 -6 96 -6 195 0 152 -2 179 -15 179 -13 0 -15 -27
-15 -180z"/>
<path d="M6050 2140 l0 -210 55 0 c42 0 55 3 55 15 0 11 -11 15 -40 15 l-40 0
0 85 0 85 30 0 c23 0 30 4 30 20 0 16 -7 20 -30 20 l-30 0 0 75 0 75 35 0 c24
0 35 5 35 15 0 11 -12 15 -50 15 l-50 0 0 -210z"/>
<path d="M1620 1661 c0 -74 3 -91 15 -91 10 0 15 11 15 35 0 44 9 44 39 0 13
-19 30 -35 38 -35 11 0 8 10 -12 36 -15 19 -25 37 -24 38 2 2 14 9 27 15 26
14 30 52 7 71 -8 7 -35 15 -60 18 l-45 5 0 -92z"/>
<path d="M2600 1661 l0 -91 56 0 c48 0 59 4 85 29 31 31 36 55 18 94 -15 33
-44 48 -105 54 l-54 6 0 -92z m121 43 c21 -19 25 -55 9 -84 -11 -20 -83 -45
-100 -35 -6 3 -10 38 -10 77 l0 71 41 -6 c22 -3 49 -13 60 -23z"/>
<path d="M4588 1734 c-54 -29 -65 -94 -22 -137 49 -50 135 -48 178 4 42 49 28
108 -31 138 -30 15 -93 13 -125 -5z m126 -25 c42 -33 34 -89 -16 -115 -54 -28
-115 -3 -133 54 -5 17 1 29 24 52 36 37 85 40 125 9z"/>
<path d="M4880 1743 c-34 -13 -60 -47 -60 -80 0 -45 14 -69 50 -88 78 -40 180
11 180 92 0 8 -15 30 -34 49 -29 29 -41 34 -77 33 -24 0 -51 -3 -59 -6z m122
-43 c27 -33 22 -65 -14 -95 -26 -22 -39 -26 -67 -21 -37 6 -81 45 -81 72 0 9
14 29 30 46 27 27 36 30 73 25 26 -4 48 -14 59 -27z"/>
<path d="M5260 1660 l0 -90 41 0 c22 0 49 5 60 10 26 14 25 56 -2 70 -20 11
-20 13 -4 30 10 11 15 26 11 35 -6 18 -47 35 -82 35 -24 0 -24 -1 -24 -90z"/>
<path d="M1670 1436 c50 -109 210 -376 226 -376 2 0 4 99 4 220 l0 220 -129 0
-130 0 29 -64z"/>
<path d="M2260 1081 l0 -418 60 -47 60 -47 0 465 0 466 -60 0 -60 0 0 -419z"/>
<path d="M2740 925 l0 -575 38 -19 c20 -10 47 -22 60 -25 l22 -7 0 600 0 601
-60 0 -60 0 0 -575z"/>
<path d="M3210 841 c0 -549 2 -660 14 -664 7 -3 34 -9 60 -12 l46 -7 0 671 0
671 -60 0 -60 0 0 -659z"/>
<path d="M3690 811 l0 -690 28 -3 c15 -2 42 -1 60 1 l32 3 0 689 0 689 -60 0
-60 0 0 -689z"/>
<path d="M4170 829 l0 -671 46 7 c26 3 53 9 60 12 12 4 14 115 14 664 l0 659
-60 0 -60 0 0 -671z"/>
<path d="M4640 899 l0 -600 23 7 c12 3 39 15 60 25 l37 19 0 575 0 575 -60 0
-60 0 0 -601z"/>
<path d="M5120 1034 l0 -465 60 47 60 47 0 418 0 419 -60 0 -60 0 0 -466z"/>
<path d="M5600 1280 c0 -121 2 -220 4 -220 16 0 176 267 226 376 l29 64 -130
0 -129 0 0 -220z"/>
</g>
</svg>
